# Blender v2.83.3 OBJ File: 'car.blend'
# www.blender.org
o winder_Cube.002
v 0.127071 0.073365 -0.952738
v 0.127071 0.073365 0.111046
v 0.127071 -0.073364 -0.952738
v 0.127071 -0.073364 0.111046
v 1.003264 -0.094580 -0.783736
v 1.003264 -0.094580 -0.952738
v 1.003264 0.094580 -0.952738
v 0.127071 0.073365 -0.783736
v 0.127071 -0.073364 -0.783736
v 1.003264 0.094580 -0.783736
v 1.149010 0.367910 -0.783736
v 1.149010 0.367910 -0.952738
v 1.149010 -0.367911 -0.952738
v 1.149010 -0.367911 -0.783736
v 0.634729 -0.054857 -0.952738
v 0.634729 0.054857 -0.783736
v 0.634729 0.054857 -0.952738
v 0.634729 -0.054857 -0.783736
v 0.000000 0.146729 -0.952738
v 0.000000 0.146729 0.111046
v -0.127071 0.073365 -0.952738
v -0.127071 0.073365 0.111046
v -0.127071 -0.073364 -0.952738
v -0.127071 -0.073364 0.111046
v 0.000000 -0.146729 -0.952738
v 0.000000 -0.146729 0.111046
v -1.003264 -0.094580 -0.783736
v -1.003264 -0.094580 -0.952738
v -1.003264 0.094580 -0.952738
v 0.000000 0.146729 -0.783736
v -0.127071 0.073365 -0.783736
v -0.127071 -0.073364 -0.783736
v 0.000000 -0.146729 -0.783736
v -1.003264 0.094580 -0.783736
v 0.000000 0.000000 -1.034673
v -1.149010 0.367910 -0.783736
v -1.149010 0.367910 -0.952738
v -1.149010 -0.367911 -0.952738
v -1.149010 -0.367911 -0.783736
v -0.634729 -0.054857 -0.952738
v -0.634729 0.054857 -0.783736
v -0.634729 0.054857 -0.952738
v -0.634729 -0.054857 -0.783736
vt 0.686979 0.099368
vt 0.985486 0.290121
vt 0.954205 0.339072
vt 0.655698 0.148319
vt 0.143351 0.573082
vt 0.088050 0.905804
vt 0.033489 0.896736
vt 0.088790 0.564013
vt 0.428034 0.092136
vt 0.025700 0.114972
vt 0.021955 0.048996
vt 0.424290 0.026160
vt 0.167844 0.383166
vt 0.127047 0.376385
vt 0.135053 0.236891
vt 0.205392 0.248582
vt 0.384608 0.319231
vt 0.459897 0.344583
vt 0.375707 0.540282
vt 0.310609 0.472004
vt 0.585802 0.111376
vt 0.567977 0.035402
vt 0.631645 0.060136
vt 0.509750 0.357007
vt 0.493369 0.565145
vt 0.511940 0.091673
vt 0.586379 0.369334
vt 0.586026 0.531050
vt 0.500280 0.021847
vt 0.674297 0.649441
vt 0.609705 0.697600
vt 0.583048 0.787175
vt 0.193042 0.671112
vt 0.219699 0.581537
vt 0.198451 0.522761
vt 0.042424 0.165803
vt 0.316037 0.211280
vt 0.655698 0.148319
vt 0.954205 0.339072
vt 0.143351 0.573082
vt 0.088790 0.564013
vt 0.033489 0.896736
vt 0.088050 0.905804
vt 0.428034 0.092136
vt 0.025700 0.114972
vt 0.167844 0.383166
vt 0.205392 0.248582
vt 0.135053 0.236891
vt 0.127047 0.376385
vt 0.384608 0.319231
vt 0.310609 0.472004
vt 0.375707 0.540282
vt 0.459897 0.344583
vt 0.585802 0.111376
vt 0.493369 0.565145
vt 0.509750 0.357007
vt 0.511940 0.091673
vt 0.586026 0.531050
vt 0.586379 0.369334
vt 0.609705 0.697600
vt 0.674297 0.649441
vt 0.219699 0.581537
vt 0.193042 0.671112
vt 0.583048 0.787175
vt 0.198451 0.522761
vt 0.316037 0.211280
vt 0.042424 0.165803
vn 0.5000 0.8660 0.0000
vn 1.0000 -0.0000 0.0000
vn 0.5000 -0.8660 0.0000
vn -0.0000 0.0000 1.0000
vn -0.1072 -0.9942 0.0000
vn 0.2710 0.4693 -0.8404
vn 0.0000 0.0000 -1.0000
vn 0.5419 -0.0000 -0.8404
vn -0.1072 0.9942 -0.0000
vn -0.8824 0.4705 0.0000
vn -0.8824 -0.4705 0.0000
vn 0.2710 -0.4693 -0.8404
vn 0.0364 0.9993 0.0000
vn 0.0364 -0.9993 0.0000
vn -0.5000 0.8660 0.0000
vn -1.0000 -0.0000 0.0000
vn -0.5000 -0.8660 0.0000
vn 0.1072 -0.9942 0.0000
vn -0.2710 0.4693 -0.8404
vn -0.5419 -0.0000 -0.8404
vn 0.1072 0.9942 -0.0000
vn 0.8824 0.4705 0.0000
vn 0.8824 -0.4705 0.0000
vn -0.2710 -0.4693 -0.8404
vn -0.0364 0.9993 0.0000
vn -0.0364 -0.9993 0.0000
s off
f 30/1/1 20/2/1 2/3/1 8/4/1
f 8/5/2 2/6/2 4/7/2 9/8/2
f 9/9/3 4/10/3 26/11/3 33/12/3
f 16/13/4 18/14/4 5/15/4 10/16/4
f 18/17/5 15/18/5 6/19/5 5/20/5
f 1/21/6 35/22/6 19/23/6
f 15/18/7 17/24/7 7/25/7 6/19/7
f 3/26/8 35/22/8 1/21/8
f 17/24/9 16/27/9 10/28/9 7/25/9
f 3/26/3 9/9/3 33/12/3 25/29/3
f 7/25/10 10/28/10 11/30/10 12/31/10
f 19/23/1 30/1/1 8/4/1 1/21/1
f 12/31/2 11/32/2 14/33/2 13/34/2
f 5/20/11 6/19/11 13/34/11 14/35/11
f 10/16/4 5/15/4 14/36/4 11/37/4
f 6/19/7 7/25/7 12/31/7 13/34/7
f 25/29/12 35/22/12 3/26/12
f 1/21/13 8/4/13 16/27/13 17/24/13
f 3/26/7 1/21/7 17/24/7 15/18/7
f 9/9/14 3/26/14 15/18/14 18/17/14
f 8/5/4 9/8/4 18/14/4 16/13/4
f 30/1/15 31/38/15 22/39/15 20/2/15
f 31/40/16 32/41/16 24/42/16 22/43/16
f 32/44/17 33/12/17 26/11/17 24/45/17
f 41/46/4 34/47/4 27/48/4 43/49/4
f 43/50/18 27/51/18 28/52/18 40/53/18
f 21/54/19 19/23/19 35/22/19
f 40/53/7 28/52/7 29/55/7 42/56/7
f 23/57/20 21/54/20 35/22/20
f 42/56/21 29/55/21 34/58/21 41/59/21
f 23/57/17 25/29/17 33/12/17 32/44/17
f 29/55/22 37/60/22 36/61/22 34/58/22
f 19/23/15 21/54/15 31/38/15 30/1/15
f 37/60/16 38/62/16 39/63/16 36/64/16
f 27/51/23 39/65/23 38/62/23 28/52/23
f 34/47/4 36/66/4 39/67/4 27/48/4
f 28/52/7 38/62/7 37/60/7 29/55/7
f 25/29/24 23/57/24 35/22/24
f 21/54/25 42/56/25 41/59/25 31/38/25
f 23/57/7 40/53/7 42/56/7 21/54/7
f 32/44/26 43/50/26 40/53/26 23/57/26
f 31/40/4 41/46/4 43/49/4 32/41/4
