# Blender v2.83.3 OBJ File: 'track.blend'
# www.blender.org
o Cube.001_Cube.006
v 7.000000 -37.051319 1.000000
v 7.000000 25.194824 1.000000
v 7.000000 -37.051319 -1.000000
v 7.000000 25.194824 -1.000000
v 9.000000 -37.051319 1.000000
v 9.054198 25.150703 1.028327
v 9.000000 -37.051319 -1.000000
v 9.054198 25.150703 -0.971673
v 7.000000 22.947330 1.000000
v 7.000000 22.947330 -1.000000
v 9.000000 22.947330 -1.000000
v 9.000000 22.947330 1.000000
v 6.983561 16.960499 -0.983286
v 6.953811 10.973665 -0.951571
v 7.000000 4.986833 -1.000000
v 8.983286 16.960499 -1.016440
v 8.951571 10.973665 -1.046189
v 9.000000 4.986833 -1.000000
v 9.016439 16.960499 0.983286
v 9.046189 10.973665 0.951571
v 9.000000 4.986833 1.000000
v 7.000000 4.986833 1.000000
v 7.048429 10.973665 1.046189
v 7.016715 16.960499 1.016439
v 3.198973 22.929419 0.932098
v 3.451269 22.995800 -1.050814
v 3.801027 25.212736 -0.932098
v 3.548731 25.146355 1.050814
v -7.000000 -37.051319 1.000000
v -7.000000 25.194824 1.000000
v -7.000000 -37.051319 -1.000000
v -7.000000 25.194824 -1.000000
v -9.000000 -37.051319 1.000000
v -9.054198 25.150703 1.028327
v -9.000000 -37.051319 -1.000000
v -9.054198 25.150703 -0.971673
v -7.000000 22.947330 1.000000
v -7.000000 22.947330 -1.000000
v -9.000000 22.947330 -1.000000
v -9.000000 22.947330 1.000000
v 0.000000 22.947330 1.000000
v 0.000000 25.194824 1.000000
v 0.000000 25.194824 -1.000000
v 0.000000 22.947330 -1.000000
v -6.983561 16.960499 -0.983286
v -6.953811 10.973665 -0.951571
v -7.000000 4.986833 -1.000000
v -8.983286 16.960499 -1.016440
v -8.951571 10.973665 -1.046189
v -9.000000 4.986833 -1.000000
v -9.016439 16.960499 0.983286
v -9.046189 10.973665 0.951571
v -9.000000 4.986833 1.000000
v -7.000000 4.986833 1.000000
v -7.048429 10.973665 1.046189
v -7.016715 16.960499 1.016439
v -3.198973 22.929419 0.932098
v -3.451269 22.995800 -1.050814
v -3.801027 25.212736 -0.932098
v -3.548731 25.146355 1.050814
vt 0.637975 0.120860
vt 0.565377 0.117840
vt 0.562768 0.079267
vt 0.635943 0.079241
vt 0.369437 0.339668
vt 0.302974 0.338400
vt 0.302263 0.277755
vt 0.369437 0.278699
vt 0.561412 0.163646
vt 0.562451 0.137070
vt 0.635625 0.137070
vt 0.634587 0.163647
vt 0.175595 0.284796
vt 0.242255 0.279368
vt 0.245986 0.339614
vt 0.179569 0.345257
vt 0.561376 0.234605
vt 0.561994 0.162416
vt 0.635168 0.162417
vt 0.634551 0.234606
vt 0.560795 0.235835
vt 0.633969 0.235836
vt 0.561444 0.235834
vt 0.562061 0.163645
vt 0.635236 0.163646
vt 0.634618 0.235835
vt 0.562606 0.235863
vt 0.563044 0.163674
vt 0.636219 0.163654
vt 0.635781 0.235844
vt 0.252633 0.431537
vt 0.300268 0.424195
vt 0.289580 0.485834
vt 0.267467 0.490511
vt 0.359362 0.446523
vt 0.309200 0.532556
vt 0.196136 0.459693
vt 0.250223 0.530776
vt 0.564801 0.887133
vt 0.563583 0.380243
vt 0.636757 0.380224
vt 0.637975 0.887114
vt 0.561637 0.308053
vt 0.634812 0.308033
vt 0.562021 0.887105
vt 0.562062 0.380215
vt 0.635236 0.380215
vt 0.635195 0.887106
vt 0.560296 0.308024
vt 0.633470 0.308024
vt 0.561372 0.887106
vt 0.561412 0.380215
vt 0.634587 0.380216
vt 0.634546 0.887107
vt 0.559647 0.308024
vt 0.632821 0.308025
vt 0.561953 0.885876
vt 0.561994 0.378986
vt 0.635168 0.378986
vt 0.635127 0.885877
vt 0.560228 0.306795
vt 0.633402 0.306795
vt 0.637975 0.120860
vt 0.565377 0.117840
vt 0.369437 0.339668
vt 0.369437 0.278699
vt 0.302263 0.277755
vt 0.302974 0.338400
vt 0.561412 0.163646
vt 0.634587 0.163647
vt 0.635625 0.137070
vt 0.562451 0.137070
vt 0.175595 0.284796
vt 0.179569 0.345257
vt 0.245986 0.339614
vt 0.242255 0.279368
vt 0.561376 0.234605
vt 0.634551 0.234606
vt 0.635168 0.162417
vt 0.561994 0.162416
vt 0.560795 0.235835
vt 0.633969 0.235836
vt 0.561444 0.235834
vt 0.634618 0.235835
vt 0.635236 0.163646
vt 0.562061 0.163645
vt 0.562606 0.235863
vt 0.635781 0.235844
vt 0.636219 0.163654
vt 0.563044 0.163674
vt 0.252633 0.431537
vt 0.300268 0.424195
vt 0.359362 0.446523
vt 0.196136 0.459693
vt 0.564801 0.887133
vt 0.637975 0.887114
vt 0.636757 0.380224
vt 0.563583 0.380243
vt 0.634812 0.308033
vt 0.561637 0.308053
vt 0.562021 0.887105
vt 0.635195 0.887106
vt 0.635236 0.380215
vt 0.562062 0.380215
vt 0.633470 0.308024
vt 0.560296 0.308024
vt 0.561372 0.887106
vt 0.634546 0.887107
vt 0.634587 0.380216
vt 0.561412 0.380215
vt 0.632821 0.308025
vt 0.559647 0.308024
vt 0.561953 0.885876
vt 0.635127 0.885877
vt 0.635168 0.378986
vt 0.561994 0.378986
vt 0.633402 0.306795
vt 0.560228 0.306795
vn 0.0043 -0.9999 -0.0164
vn 0.0071 0.0063 -1.0000
vn 0.9997 -0.0246 0.0000
vn -0.0071 -0.0063 1.0000
vn 0.0215 0.9998 0.0000
vn 0.0083 -0.0000 1.0000
vn 1.0000 -0.0000 -0.0083
vn -0.0083 0.0000 -1.0000
vn -1.0000 0.0000 0.0083
vn 0.0039 0.9998 0.0169
vn 0.0021 0.0264 -0.9996
vn 0.0023 -0.0268 0.9996
vn -1.0000 0.0000 0.0000
vn -0.9997 -0.0000 0.0237
vn -0.9995 -0.0000 0.0319
vn 0.0000 0.0000 -1.0000
vn -0.0237 0.0000 -0.9997
vn -0.0319 -0.0000 -0.9995
vn 1.0000 0.0000 0.0000
vn 0.9997 0.0000 -0.0237
vn 0.9995 0.0000 -0.0319
vn 0.0000 0.0000 1.0000
vn 0.0237 0.0000 0.9997
vn 0.0319 0.0000 0.9995
vn -0.0021 -0.0264 0.9996
vn -0.0023 0.0268 -0.9996
vn -0.0043 0.9999 0.0164
vn -0.0039 -0.9998 -0.0169
vn -0.0043 -0.9999 -0.0164
vn -0.0071 0.0063 -1.0000
vn -0.9997 -0.0246 0.0000
vn 0.0071 -0.0063 1.0000
vn -0.0215 0.9998 0.0000
vn -0.0083 -0.0000 1.0000
vn -1.0000 -0.0000 -0.0083
vn 0.0083 0.0000 -1.0000
vn 1.0000 0.0000 0.0083
vn -0.0039 0.9998 0.0169
vn -0.0021 0.0264 -0.9996
vn -0.0023 -0.0268 0.9996
vn 0.9997 0.0000 0.0237
vn 0.9995 -0.0000 0.0319
vn 0.0237 0.0000 -0.9997
vn 0.0319 -0.0000 -0.9995
vn -0.9997 0.0000 -0.0237
vn -0.9995 0.0000 -0.0319
vn -0.0237 0.0000 0.9997
vn -0.0319 0.0000 0.9995
vn 0.0021 -0.0264 0.9996
vn 0.0023 0.0268 -0.9996
vn 0.0043 0.9999 0.0164
vn 0.0039 -0.9998 -0.0169
s off
f 26/1/1 25/2/1 41/3/1 44/4/1
f 10/5/2 4/6/2 8/7/2 11/8/2
f 11/9/3 8/10/3 6/11/3 12/12/3
f 12/13/4 6/14/4 2/15/4 9/16/4
f 8/7/5 4/6/5 2/15/5 6/14/5
f 19/17/6 12/18/6 9/19/6 24/20/6
f 16/21/7 11/9/7 12/12/7 19/22/7
f 13/23/8 10/24/8 11/25/8 16/26/8
f 24/27/9 9/28/9 10/29/9 13/30/9
f 28/31/10 27/32/10 43/33/10 42/34/10
f 27/32/11 26/35/11 44/36/11 43/33/11
f 25/37/12 28/31/12 42/34/12 41/38/12
f 1/39/13 22/40/13 15/41/13 3/42/13
f 22/40/14 23/43/14 14/44/14 15/41/14
f 23/43/15 24/27/15 13/30/15 14/44/15
f 3/45/16 15/46/16 18/47/16 7/48/16
f 15/46/17 14/49/17 17/50/17 18/47/17
f 14/49/18 13/23/18 16/26/18 17/50/18
f 7/51/19 18/52/19 21/53/19 5/54/19
f 18/52/20 17/55/20 20/56/20 21/53/20
f 17/55/21 16/21/21 19/22/21 20/56/21
f 5/57/22 21/58/22 22/59/22 1/60/22
f 21/58/23 20/61/23 23/62/23 22/59/23
f 20/61/24 19/17/24 24/20/24 23/62/24
f 9/16/25 2/15/25 28/31/25 25/37/25
f 4/6/26 10/5/26 26/35/26 27/32/26
f 2/15/27 4/6/27 27/32/27 28/31/27
f 10/29/28 9/28/28 25/2/28 26/1/28
f 58/63/29 44/4/29 41/3/29 57/64/29
f 38/65/30 39/66/30 36/67/30 32/68/30
f 39/69/31 40/70/31 34/71/31 36/72/31
f 40/73/32 37/74/32 30/75/32 34/76/32
f 36/67/33 34/76/33 30/75/33 32/68/33
f 51/77/34 56/78/34 37/79/34 40/80/34
f 48/81/35 51/82/35 40/70/35 39/69/35
f 45/83/36 48/84/36 39/85/36 38/86/36
f 56/87/37 45/88/37 38/89/37 37/90/37
f 41/38/19 44/36/19 43/33/19 42/34/19
f 60/91/38 42/34/38 43/33/38 59/92/38
f 59/92/39 43/33/39 44/36/39 58/93/39
f 57/94/40 41/38/40 42/34/40 60/91/40
f 29/95/19 31/96/19 47/97/19 54/98/19
f 54/98/41 47/97/41 46/99/41 55/100/41
f 55/100/42 46/99/42 45/88/42 56/87/42
f 31/101/16 35/102/16 50/103/16 47/104/16
f 47/104/43 50/103/43 49/105/43 46/106/43
f 46/106/44 49/105/44 48/84/44 45/83/44
f 35/107/13 33/108/13 53/109/13 50/110/13
f 50/110/45 53/109/45 52/111/45 49/112/45
f 49/112/46 52/111/46 51/82/46 48/81/46
f 33/113/22 29/114/22 54/115/22 53/116/22
f 53/116/47 54/115/47 55/117/47 52/118/47
f 52/118/48 55/117/48 56/78/48 51/77/48
f 37/74/49 57/94/49 60/91/49 30/75/49
f 32/68/50 59/92/50 58/93/50 38/65/50
f 30/75/51 60/91/51 59/92/51 32/68/51
f 38/89/52 58/63/52 57/64/52 37/90/52
