# Blender v2.83.3 OBJ File: 'car.blend'
# www.blender.org
o front_wheels_Cube.004
v 0.704228 0.000000 -0.091705
v 0.952967 -0.000000 -0.137660
v 0.704228 -0.064845 -0.064845
v 0.952967 -0.097340 -0.097340
v 0.704228 -0.091705 0.000000
v 0.952967 -0.137660 0.000000
v 0.704228 -0.064845 0.064845
v 0.952967 -0.097340 0.097340
v 0.704228 -0.000000 0.091705
v 0.952967 -0.000000 0.137660
v 0.704228 0.064845 0.064845
v 0.952967 0.097340 0.097340
v 0.704228 0.091705 0.000000
v 0.952967 0.137660 0.000000
v 0.704228 0.064845 -0.064845
v 0.952967 0.097340 -0.097340
v 0.704228 -0.000000 -0.350062
v 0.704228 -0.247531 -0.247531
v 0.704228 -0.350062 0.000000
v 0.704228 -0.247531 0.247531
v 0.704228 -0.000000 0.350062
v 0.704228 0.247531 0.247531
v 0.704228 0.350062 0.000000
v 0.704228 0.247531 -0.247531
v 0.230334 0.000000 -0.091705
v 0.230334 -0.064845 -0.064845
v 0.230334 -0.091705 0.000000
v 0.230334 -0.064845 0.064845
v 0.230334 -0.000000 0.091705
v 0.230334 0.064845 0.064845
v 0.230334 0.091705 0.000000
v 0.230334 0.064845 -0.064845
v 0.952967 -0.247531 -0.247531
v 0.952967 -0.000000 -0.350062
v 0.952967 -0.350062 0.000000
v 0.952967 -0.247531 0.247531
v 0.952967 -0.000000 0.350062
v 0.952967 0.247531 0.247531
v 0.952967 0.350062 0.000000
v 0.952967 0.247531 -0.247531
v 0.891595 -0.097340 -0.097340
v 0.891595 -0.000000 -0.137660
v 0.891595 -0.137660 0.000000
v 0.891595 -0.097340 0.097340
v 0.891595 -0.000000 0.137660
v 0.891595 0.097340 0.097340
v 0.891595 0.137660 0.000000
v 0.891595 0.097340 -0.097340
v 0.999858 -0.000000 -0.243861
v 0.999858 -0.172436 -0.172436
v 0.999858 -0.243861 0.000000
v 0.999858 -0.172436 0.172436
v 0.999858 -0.000000 0.243861
v 0.999858 0.172436 0.172436
v 0.999858 0.243861 0.000000
v 0.999858 0.172436 -0.172436
v -0.704228 0.000000 -0.091705
v -0.952967 -0.000000 -0.137660
v -0.704228 -0.064845 -0.064845
v -0.952967 -0.097340 -0.097340
v -0.704228 -0.091705 0.000000
v -0.952967 -0.137660 0.000000
v -0.704228 -0.064845 0.064845
v -0.952967 -0.097340 0.097340
v -0.704228 -0.000000 0.091705
v -0.952967 -0.000000 0.137660
v -0.704228 0.064845 0.064845
v -0.952967 0.097340 0.097340
v -0.704228 0.091705 0.000000
v -0.952967 0.137660 0.000000
v -0.704228 0.064845 -0.064845
v -0.952967 0.097340 -0.097340
v -0.704228 -0.000000 -0.350062
v -0.704228 -0.247531 -0.247531
v -0.704228 -0.350062 0.000000
v -0.704228 -0.247531 0.247531
v -0.704228 -0.000000 0.350062
v -0.704228 0.247531 0.247531
v -0.704228 0.350062 0.000000
v -0.704228 0.247531 -0.247531
v -0.230334 0.000000 -0.091705
v -0.230334 -0.064845 -0.064845
v -0.230334 -0.091705 0.000000
v -0.230334 -0.064845 0.064845
v -0.230334 -0.000000 0.091705
v -0.230334 0.064845 0.064845
v -0.230334 0.091705 0.000000
v -0.230334 0.064845 -0.064845
v -0.952967 -0.247531 -0.247531
v -0.952967 -0.000000 -0.350062
v -0.952967 -0.350062 0.000000
v -0.952967 -0.247531 0.247531
v -0.952967 -0.000000 0.350062
v -0.952967 0.247531 0.247531
v -0.952967 0.350062 0.000000
v -0.952967 0.247531 -0.247531
v -0.891595 -0.097340 -0.097340
v -0.891595 -0.000000 -0.137660
v -0.891595 -0.137660 0.000000
v -0.891595 -0.097340 0.097340
v -0.891595 -0.000000 0.137660
v -0.891595 0.097340 0.097340
v -0.891595 0.137660 0.000000
v -0.891595 0.097340 -0.097340
v -0.999858 -0.000000 -0.243861
v -0.999858 -0.172436 -0.172436
v -0.999858 -0.243861 0.000000
v -0.999858 -0.172436 0.172436
v -0.999858 -0.000000 0.243861
v -0.999858 0.172436 0.172436
v -0.999858 0.243861 0.000000
v -0.999858 0.172436 -0.172436
vt 1.000000 0.500000
vt 1.000000 1.000000
vt 0.875000 1.000000
vt 0.875000 0.500000
vt 0.750000 1.000000
vt 0.750000 0.500000
vt 0.625000 1.000000
vt 0.625000 0.500000
vt 0.500000 1.000000
vt 0.500000 0.500000
vt 0.375000 1.000000
vt 0.375000 0.500000
vt 0.250000 1.000000
vt 0.250000 0.500000
vt 0.250000 0.436257
vt 0.118296 0.381703
vt 0.118296 0.381703
vt 0.250000 0.436257
vt 0.125000 1.000000
vt 0.125000 0.500000
vt 0.000000 1.000000
vt 0.000000 0.500000
vt 0.687128 0.250000
vt 0.705543 0.294457
vt 0.705543 0.294457
vt 0.687128 0.250000
vt 0.794457 0.294457
vt 0.750000 0.312872
vt 0.750000 0.490000
vt 0.919706 0.419706
vt 0.812872 0.250000
vt 0.990000 0.250000
vt 0.794457 0.205543
vt 0.919706 0.080294
vt 0.750000 0.187128
vt 0.750000 0.010000
vt 0.705543 0.205543
vt 0.580294 0.080294
vt 0.510000 0.250000
vt 0.580294 0.419706
vt 0.750000 0.312872
vt 0.794457 0.294457
vt 0.812872 0.250000
vt 0.794457 0.205543
vt 0.750000 0.187128
vt 0.705543 0.205543
vt 0.250000 0.463128
vt 0.400705 0.400705
vt 0.419706 0.419706
vt 0.250000 0.490000
vt 0.463128 0.250000
vt 0.490000 0.250000
vt 0.400705 0.099295
vt 0.419706 0.080294
vt 0.250000 0.036872
vt 0.250000 0.010000
vt 0.099295 0.099295
vt 0.080294 0.080294
vt 0.036872 0.250000
vt 0.010000 0.250000
vt 0.099295 0.400705
vt 0.080294 0.419706
vt 0.381703 0.381703
vt 0.063743 0.250000
vt 0.118296 0.118297
vt 0.250000 0.063743
vt 0.381703 0.118296
vt 0.436257 0.250000
vt 0.063743 0.250000
vt 0.118296 0.118297
vt 0.250000 0.063743
vt 0.381703 0.118296
vt 0.436257 0.250000
vt 0.381703 0.381703
vt 1.000000 0.500000
vt 0.875000 0.500000
vt 0.875000 1.000000
vt 1.000000 1.000000
vt 0.750000 0.500000
vt 0.750000 1.000000
vt 0.625000 0.500000
vt 0.625000 1.000000
vt 0.500000 0.500000
vt 0.500000 1.000000
vt 0.375000 0.500000
vt 0.375000 1.000000
vt 0.250000 0.500000
vt 0.250000 1.000000
vt 0.250000 0.436257
vt 0.250000 0.436257
vt 0.118296 0.381703
vt 0.118296 0.381703
vt 0.125000 0.500000
vt 0.125000 1.000000
vt 0.000000 0.500000
vt 0.000000 1.000000
vt 0.687128 0.250000
vt 0.687128 0.250000
vt 0.705543 0.294457
vt 0.705543 0.294457
vt 0.794457 0.294457
vt 0.919706 0.419706
vt 0.750000 0.490000
vt 0.750000 0.312872
vt 0.812872 0.250000
vt 0.990000 0.250000
vt 0.794457 0.205543
vt 0.919706 0.080294
vt 0.750000 0.187128
vt 0.750000 0.010000
vt 0.705543 0.205543
vt 0.580294 0.080294
vt 0.510000 0.250000
vt 0.580294 0.419706
vt 0.750000 0.312872
vt 0.705543 0.205543
vt 0.750000 0.187128
vt 0.794457 0.205543
vt 0.812872 0.250000
vt 0.794457 0.294457
vt 0.250000 0.463128
vt 0.250000 0.490000
vt 0.419706 0.419706
vt 0.400705 0.400705
vt 0.490000 0.250000
vt 0.463128 0.250000
vt 0.419706 0.080294
vt 0.400705 0.099295
vt 0.250000 0.010000
vt 0.250000 0.036872
vt 0.080294 0.080294
vt 0.099295 0.099295
vt 0.010000 0.250000
vt 0.036872 0.250000
vt 0.080294 0.419706
vt 0.099295 0.400705
vt 0.381703 0.381703
vt 0.436257 0.250000
vt 0.381703 0.118296
vt 0.250000 0.063743
vt 0.118296 0.118297
vt 0.063743 0.250000
vt 0.063743 0.250000
vt 0.118296 0.118297
vt 0.250000 0.063743
vt 0.381703 0.118296
vt 0.436257 0.250000
vt 0.381703 0.381703
vn 0.0000 -0.3827 -0.9239
vn 0.0000 -0.9239 -0.3827
vn 0.0000 -0.9239 0.3827
vn 0.0000 -0.3827 0.9239
vn 0.0000 0.3827 0.9239
vn 0.0000 0.9239 0.3827
vn 0.0000 0.9239 -0.3827
vn 0.0000 0.3827 -0.9239
vn -1.0000 -0.0000 0.0000
vn 0.9023 -0.1650 -0.3984
vn 0.9023 -0.3984 -0.1650
vn 0.9023 -0.3984 0.1650
vn 0.9023 -0.1650 0.3984
vn 0.9023 0.1650 0.3984
vn 0.9023 0.3984 0.1650
vn 0.9023 0.3984 -0.1650
vn 0.9023 0.1650 -0.3984
vn 1.0000 0.0000 0.0000
vn -0.9023 -0.1650 -0.3984
vn -0.9023 -0.3984 -0.1650
vn -0.9023 -0.3984 0.1650
vn -0.9023 -0.1650 0.3984
vn -0.9023 0.1650 0.3984
vn -0.9023 0.3984 0.1650
vn -0.9023 0.3984 -0.1650
vn -0.9023 0.1650 -0.3984
s off
f 17/1/1 34/2/1 33/3/1 18/4/1
f 18/4/2 33/3/2 35/5/2 19/6/2
f 19/6/3 35/5/3 36/7/3 20/8/3
f 20/8/4 36/7/4 37/9/4 21/10/4
f 21/10/5 37/9/5 38/11/5 22/12/5
f 22/12/6 38/11/6 39/13/6 23/14/6
f 2/15/4 16/16/4 48/17/4 42/18/4
f 23/14/7 39/13/7 40/19/7 24/20/7
f 24/20/8 40/19/8 34/21/8 17/22/8
f 13/23/7 15/24/7 32/25/7 31/26/7
f 3/27/9 1/28/9 17/29/9 18/30/9
f 5/31/9 3/27/9 18/30/9 19/32/9
f 7/33/9 5/31/9 19/32/9 20/34/9
f 9/35/9 7/33/9 20/34/9 21/36/9
f 11/37/9 9/35/9 21/36/9 22/38/9
f 13/23/9 11/37/9 22/38/9 23/39/9
f 15/24/9 13/23/9 23/39/9 24/40/9
f 1/28/9 15/24/9 24/40/9 17/29/9
f 25/41/9 26/42/9 27/43/9 28/44/9 29/45/9 30/46/9 31/26/9 32/25/9
f 9/35/5 11/37/5 30/46/5 29/45/5
f 5/31/3 7/33/3 28/44/3 27/43/3
f 1/28/1 3/27/1 26/42/1 25/41/1
f 15/24/8 1/28/8 25/41/8 32/25/8
f 11/37/6 13/23/6 31/26/6 30/46/6
f 7/33/4 9/35/4 29/45/4 28/44/4
f 3/27/2 5/31/2 27/43/2 26/42/2
f 49/47/10 50/48/10 33/49/10 34/50/10
f 50/48/11 51/51/11 35/52/11 33/49/11
f 51/51/12 52/53/12 36/54/12 35/52/12
f 52/53/13 53/55/13 37/56/13 36/54/13
f 53/55/14 54/57/14 38/58/14 37/56/14
f 54/57/15 55/59/15 39/60/15 38/58/15
f 55/59/16 56/61/16 40/62/16 39/60/16
f 56/61/17 49/47/17 34/50/17 40/62/17
f 41/63/18 42/18/18 48/17/18 47/64/18 46/65/18 45/66/18 44/67/18 43/68/18
f 14/69/2 12/70/2 46/65/2 47/64/2
f 10/71/8 8/72/8 44/67/8 45/66/8
f 6/73/6 4/74/6 41/63/6 43/68/6
f 16/16/3 14/69/3 47/64/3 48/17/3
f 12/70/1 10/71/1 45/66/1 46/65/1
f 8/72/7 6/73/7 43/68/7 44/67/7
f 4/74/5 2/15/5 42/18/5 41/63/5
f 16/16/13 2/15/13 49/47/13 56/61/13
f 14/69/12 16/16/12 56/61/12 55/59/12
f 12/70/11 14/69/11 55/59/11 54/57/11
f 10/71/10 12/70/10 54/57/10 53/55/10
f 8/72/17 10/71/17 53/55/17 52/53/17
f 6/73/16 8/72/16 52/53/16 51/51/16
f 4/74/15 6/73/15 51/51/15 50/48/15
f 2/15/14 4/74/14 50/48/14 49/47/14
f 73/75/1 74/76/1 89/77/1 90/78/1
f 74/76/2 75/79/2 91/80/2 89/77/2
f 75/79/3 76/81/3 92/82/3 91/80/3
f 76/81/4 77/83/4 93/84/4 92/82/4
f 77/83/5 78/85/5 94/86/5 93/84/5
f 78/85/6 79/87/6 95/88/6 94/86/6
f 58/89/4 98/90/4 104/91/4 72/92/4
f 79/87/7 80/93/7 96/94/7 95/88/7
f 80/93/8 73/95/8 90/96/8 96/94/8
f 69/97/7 87/98/7 88/99/7 71/100/7
f 59/101/18 74/102/18 73/103/18 57/104/18
f 61/105/18 75/106/18 74/102/18 59/101/18
f 63/107/18 76/108/18 75/106/18 61/105/18
f 65/109/18 77/110/18 76/108/18 63/107/18
f 67/111/18 78/112/18 77/110/18 65/109/18
f 69/97/18 79/113/18 78/112/18 67/111/18
f 71/100/18 80/114/18 79/113/18 69/97/18
f 57/104/18 73/103/18 80/114/18 71/100/18
f 81/115/18 88/99/18 87/98/18 86/116/18 85/117/18 84/118/18 83/119/18 82/120/18
f 65/109/5 85/117/5 86/116/5 67/111/5
f 61/105/3 83/119/3 84/118/3 63/107/3
f 57/104/1 81/115/1 82/120/1 59/101/1
f 71/100/8 88/99/8 81/115/8 57/104/8
f 67/111/6 86/116/6 87/98/6 69/97/6
f 63/107/4 84/118/4 85/117/4 65/109/4
f 59/101/2 82/120/2 83/119/2 61/105/2
f 105/121/19 90/122/19 89/123/19 106/124/19
f 106/124/20 89/123/20 91/125/20 107/126/20
f 107/126/21 91/125/21 92/127/21 108/128/21
f 108/128/22 92/127/22 93/129/22 109/130/22
f 109/130/23 93/129/23 94/131/23 110/132/23
f 110/132/24 94/131/24 95/133/24 111/134/24
f 111/134/25 95/133/25 96/135/25 112/136/25
f 112/136/26 96/135/26 90/122/26 105/121/26
f 97/137/9 99/138/9 100/139/9 101/140/9 102/141/9 103/142/9 104/91/9 98/90/9
f 70/143/2 103/142/2 102/141/2 68/144/2
f 66/145/8 101/140/8 100/139/8 64/146/8
f 62/147/6 99/138/6 97/137/6 60/148/6
f 72/92/3 104/91/3 103/142/3 70/143/3
f 68/144/1 102/141/1 101/140/1 66/145/1
f 64/146/7 100/139/7 99/138/7 62/147/7
f 60/148/5 97/137/5 98/90/5 58/89/5
f 72/92/22 112/136/22 105/121/22 58/89/22
f 70/143/21 111/134/21 112/136/21 72/92/21
f 68/144/20 110/132/20 111/134/20 70/143/20
f 66/145/19 109/130/19 110/132/19 68/144/19
f 64/146/26 108/128/26 109/130/26 66/145/26
f 62/147/25 107/126/25 108/128/25 64/146/25
f 60/148/24 106/124/24 107/126/24 62/147/24
f 58/89/23 105/121/23 106/124/23 60/148/23
