# Blender v2.83.3 OBJ File: 'car.blend'
# www.blender.org
o front_wheels_Cube.004
v 0.704228 0.000000 -0.091705
v 0.952967 -0.000000 -0.137660
v 0.704228 -0.064845 -0.064845
v 0.952967 -0.097340 -0.097340
v 0.704228 -0.091705 0.000000
v 0.952967 -0.137660 0.000000
v 0.704228 -0.064845 0.064845
v 0.952967 -0.097340 0.097340
v 0.704228 -0.000000 0.091705
v 0.952967 -0.000000 0.137660
v 0.704228 0.064845 0.064845
v 0.952967 0.097340 0.097340
v 0.704228 0.091705 0.000000
v 0.952967 0.137660 0.000000
v 0.704228 0.064845 -0.064845
v 0.952967 0.097340 -0.097340
v 0.704228 -0.000000 -0.350062
v 0.704228 -0.247531 -0.247531
v 0.704228 -0.350062 0.000000
v 0.704228 -0.247531 0.247531
v 0.704228 -0.000000 0.350062
v 0.704228 0.247531 0.247531
v 0.704228 0.350062 0.000000
v 0.704228 0.247531 -0.247531
v 0.230334 0.000000 -0.091705
v 0.230334 -0.064845 -0.064845
v 0.230334 -0.091705 0.000000
v 0.230334 -0.064845 0.064845
v 0.230334 -0.000000 0.091705
v 0.230334 0.064845 0.064845
v 0.230334 0.091705 0.000000
v 0.230334 0.064845 -0.064845
v 0.952967 -0.247531 -0.247531
v 0.952967 -0.000000 -0.350062
v 0.952967 -0.350062 0.000000
v 0.952967 -0.247531 0.247531
v 0.952967 -0.000000 0.350062
v 0.952967 0.247531 0.247531
v 0.952967 0.350062 0.000000
v 0.952967 0.247531 -0.247531
v 0.891595 -0.097340 -0.097340
v 0.891595 -0.000000 -0.137660
v 0.891595 -0.137660 0.000000
v 0.891595 -0.097340 0.097340
v 0.891595 -0.000000 0.137660
v 0.891595 0.097340 0.097340
v 0.891595 0.137660 0.000000
v 0.891595 0.097340 -0.097340
v 0.999858 -0.000000 -0.243861
v 0.999858 -0.172436 -0.172436
v 0.999858 -0.243861 0.000000
v 0.999858 -0.172436 0.172436
v 0.999858 -0.000000 0.243861
v 0.999858 0.172436 0.172436
v 0.999858 0.243861 0.000000
v 0.999858 0.172436 -0.172436
v -0.704228 0.000000 -0.091705
v -0.952967 -0.000000 -0.137660
v -0.704228 -0.064845 -0.064845
v -0.952967 -0.097340 -0.097340
v -0.704228 -0.091705 0.000000
v -0.952967 -0.137660 0.000000
v -0.704228 -0.064845 0.064845
v -0.952967 -0.097340 0.097340
v -0.704228 -0.000000 0.091705
v -0.952967 -0.000000 0.137660
v -0.704228 0.064845 0.064845
v -0.952967 0.097340 0.097340
v -0.704228 0.091705 0.000000
v -0.952967 0.137660 0.000000
v -0.704228 0.064845 -0.064845
v -0.952967 0.097340 -0.097340
v -0.704228 -0.000000 -0.350062
v -0.704228 -0.247531 -0.247531
v -0.704228 -0.350062 0.000000
v -0.704228 -0.247531 0.247531
v -0.704228 -0.000000 0.350062
v -0.704228 0.247531 0.247531
v -0.704228 0.350062 0.000000
v -0.704228 0.247531 -0.247531
v -0.230334 0.000000 -0.091705
v -0.230334 -0.064845 -0.064845
v -0.230334 -0.091705 0.000000
v -0.230334 -0.064845 0.064845
v -0.230334 -0.000000 0.091705
v -0.230334 0.064845 0.064845
v -0.230334 0.091705 0.000000
v -0.230334 0.064845 -0.064845
v -0.952967 -0.247531 -0.247531
v -0.952967 -0.000000 -0.350062
v -0.952967 -0.350062 0.000000
v -0.952967 -0.247531 0.247531
v -0.952967 -0.000000 0.350062
v -0.952967 0.247531 0.247531
v -0.952967 0.350062 0.000000
v -0.952967 0.247531 -0.247531
v -0.891595 -0.097340 -0.097340
v -0.891595 -0.000000 -0.137660
v -0.891595 -0.137660 0.000000
v -0.891595 -0.097340 0.097340
v -0.891595 -0.000000 0.137660
v -0.891595 0.097340 0.097340
v -0.891595 0.137660 0.000000
v -0.891595 0.097340 -0.097340
v -0.999858 -0.000000 -0.243861
v -0.999858 -0.172436 -0.172436
v -0.999858 -0.243861 0.000000
v -0.999858 -0.172436 0.172436
v -0.999858 -0.000000 0.243861
v -0.999858 0.172436 0.172436
v -0.999858 0.243861 0.000000
v -0.999858 0.172436 -0.172436
vt 0.250000 0.436257
vt 0.118296 0.381703
vt 0.118296 0.381703
vt 0.250000 0.436257
vt 0.687128 0.250000
vt 0.705543 0.294457
vt 0.705543 0.294457
vt 0.687128 0.250000
vt 0.794457 0.294457
vt 0.750000 0.312872
vt 0.750000 0.490000
vt 0.919706 0.419706
vt 0.812872 0.250000
vt 0.990000 0.250000
vt 0.794457 0.205543
vt 0.919706 0.080294
vt 0.750000 0.187128
vt 0.750000 0.010000
vt 0.705543 0.205543
vt 0.580294 0.080294
vt 0.510000 0.250000
vt 0.580294 0.419706
vt 0.750000 0.312872
vt 0.794457 0.294457
vt 0.812872 0.250000
vt 0.794457 0.205543
vt 0.750000 0.187128
vt 0.705543 0.205543
vt 0.381703 0.381703
vt 0.063743 0.250000
vt 0.118296 0.118297
vt 0.250000 0.063743
vt 0.381703 0.118296
vt 0.436257 0.250000
vt 0.063743 0.250000
vt 0.118296 0.118297
vt 0.250000 0.063743
vt 0.381703 0.118296
vt 0.436257 0.250000
vt 0.381703 0.381703
vt 0.250000 0.436257
vt 0.250000 0.436257
vt 0.118296 0.381703
vt 0.118296 0.381703
vt 0.687128 0.250000
vt 0.687128 0.250000
vt 0.705543 0.294457
vt 0.705543 0.294457
vt 0.794457 0.294457
vt 0.919706 0.419706
vt 0.750000 0.490000
vt 0.750000 0.312872
vt 0.812872 0.250000
vt 0.990000 0.250000
vt 0.794457 0.205543
vt 0.919706 0.080294
vt 0.750000 0.187128
vt 0.750000 0.010000
vt 0.705543 0.205543
vt 0.580294 0.080294
vt 0.510000 0.250000
vt 0.580294 0.419706
vt 0.750000 0.312872
vt 0.705543 0.205543
vt 0.750000 0.187128
vt 0.794457 0.205543
vt 0.812872 0.250000
vt 0.794457 0.294457
vt 0.381703 0.381703
vt 0.436257 0.250000
vt 0.381703 0.118296
vt 0.250000 0.063743
vt 0.118296 0.118297
vt 0.063743 0.250000
vt 0.063743 0.250000
vt 0.118296 0.118297
vt 0.250000 0.063743
vt 0.381703 0.118296
vt 0.436257 0.250000
vt 0.381703 0.381703
vt 1.000000 0.500000
vt 1.000000 1.000000
vt 0.875000 1.000000
vt 0.875000 0.500000
vt 0.750000 1.000000
vt 0.750000 0.500000
vt 0.625000 1.000000
vt 0.625000 0.500000
vt 0.500000 1.000000
vt 0.500000 0.500000
vt 0.375000 1.000000
vt 0.375000 0.500000
vt 0.250000 1.000000
vt 0.250000 0.500000
vt 0.125000 1.000000
vt 0.125000 0.500000
vt 0.000000 1.000000
vt 0.000000 0.500000
vt 0.250000 0.463128
vt 0.400705 0.400705
vt 0.419706 0.419706
vt 0.250000 0.490000
vt 0.463128 0.250000
vt 0.490000 0.250000
vt 0.400705 0.099295
vt 0.419706 0.080294
vt 0.250000 0.036872
vt 0.250000 0.010000
vt 0.099295 0.099295
vt 0.080294 0.080294
vt 0.036872 0.250000
vt 0.010000 0.250000
vt 0.099295 0.400705
vt 0.080294 0.419706
vt 1.000000 0.500000
vt 0.875000 0.500000
vt 0.875000 1.000000
vt 1.000000 1.000000
vt 0.750000 0.500000
vt 0.750000 1.000000
vt 0.625000 0.500000
vt 0.625000 1.000000
vt 0.500000 0.500000
vt 0.500000 1.000000
vt 0.375000 0.500000
vt 0.375000 1.000000
vt 0.250000 0.500000
vt 0.250000 1.000000
vt 0.125000 0.500000
vt 0.125000 1.000000
vt 0.000000 0.500000
vt 0.000000 1.000000
vt 0.250000 0.463128
vt 0.250000 0.490000
vt 0.419706 0.419706
vt 0.400705 0.400705
vt 0.490000 0.250000
vt 0.463128 0.250000
vt 0.419706 0.080294
vt 0.400705 0.099295
vt 0.250000 0.010000
vt 0.250000 0.036872
vt 0.080294 0.080294
vt 0.099295 0.099295
vt 0.010000 0.250000
vt 0.036872 0.250000
vt 0.080294 0.419706
vt 0.099295 0.400705
vn 0.0000 -0.3827 0.9239
vn 0.0000 0.9239 -0.3827
vn -1.0000 -0.0000 0.0000
vn -0.0000 0.3827 0.9239
vn -0.0000 -0.9239 0.3827
vn 0.0000 -0.3827 -0.9239
vn 0.0000 0.3827 -0.9239
vn -0.0000 0.9239 0.3827
vn 0.0000 -0.9239 -0.3827
vn 1.0000 0.0000 0.0000
vn -0.6302 0.0000 -0.7764
vn 0.4924 0.0000 -0.8703
vn 0.4924 -0.6154 -0.6154
vn -0.6302 -0.5490 -0.5490
vn 0.4924 -0.8703 0.0000
vn -0.6302 -0.7764 0.0000
vn 0.4924 -0.6154 0.6154
vn -0.6302 -0.5490 0.5490
vn 0.4924 0.0000 0.8703
vn -0.6302 0.0000 0.7764
vn 0.4924 0.6154 0.6154
vn -0.6302 0.5490 0.5490
vn 0.4924 0.8703 0.0000
vn -0.6302 0.7764 0.0000
vn 0.4924 0.6154 -0.6154
vn -0.6302 0.5490 -0.5490
vn 0.9950 0.0000 -0.1000
vn 0.9950 -0.0707 -0.0707
vn 0.9950 -0.1000 0.0000
vn 0.9950 -0.0707 0.0707
vn 0.9950 0.0000 0.1000
vn 0.9950 0.0707 0.0707
vn 0.9950 0.1000 0.0000
vn 0.9950 0.0707 -0.0707
vn 0.6170 -0.5565 0.5565
vn 0.6170 0.0000 0.7870
vn 0.6170 -0.7870 0.0000
vn 0.6170 -0.5565 -0.5565
vn 0.6170 0.0000 -0.7870
vn 0.6170 0.5565 -0.5565
vn 0.6170 0.7870 0.0000
vn 0.6170 0.5565 0.5565
vn 0.6302 0.0000 -0.7764
vn 0.6302 -0.5490 -0.5490
vn -0.4924 -0.6154 -0.6154
vn -0.4924 0.0000 -0.8703
vn 0.6302 -0.7764 0.0000
vn -0.4924 -0.8703 0.0000
vn 0.6302 -0.5490 0.5490
vn -0.4924 -0.6154 0.6154
vn 0.6302 0.0000 0.7764
vn -0.4924 0.0000 0.8703
vn 0.6302 0.5490 0.5490
vn -0.4924 0.6154 0.6154
vn 0.6302 0.7764 0.0000
vn -0.4924 0.8703 0.0000
vn 0.6302 0.5490 -0.5490
vn -0.4924 0.6154 -0.6154
vn -0.9950 0.0000 -0.1000
vn -0.9950 -0.0707 -0.0707
vn -0.9950 -0.1000 0.0000
vn -0.9950 -0.0707 0.0707
vn -0.9950 0.0000 0.1000
vn -0.9950 0.0707 0.0707
vn -0.9950 0.1000 0.0000
vn -0.9950 0.0707 -0.0707
vn -0.6170 -0.5565 0.5565
vn -0.6170 0.0000 0.7870
vn -0.6170 -0.7870 0.0000
vn -0.6170 -0.5565 -0.5565
vn -0.6170 0.0000 -0.7870
vn -0.6170 0.5565 -0.5565
vn -0.6170 0.7870 0.0000
vn -0.6170 0.5565 0.5565
s off
f 2/1/1 16/2/1 48/3/1 42/4/1
f 13/5/2 15/6/2 32/7/2 31/8/2
f 3/9/3 1/10/3 17/11/3 18/12/3
f 5/13/3 3/9/3 18/12/3 19/14/3
f 7/15/3 5/13/3 19/14/3 20/16/3
f 9/17/3 7/15/3 20/16/3 21/18/3
f 11/19/3 9/17/3 21/18/3 22/20/3
f 13/5/3 11/19/3 22/20/3 23/21/3
f 15/6/3 13/5/3 23/21/3 24/22/3
f 1/10/3 15/6/3 24/22/3 17/11/3
f 25/23/3 26/24/3 27/25/3 28/26/3 29/27/3 30/28/3 31/8/3 32/7/3
f 9/17/4 11/19/4 30/28/4 29/27/4
f 5/13/5 7/15/5 28/26/5 27/25/5
f 1/10/6 3/9/6 26/24/6 25/23/6
f 15/6/7 1/10/7 25/23/7 32/7/7
f 11/19/8 13/5/8 31/8/8 30/28/8
f 7/15/1 9/17/1 29/27/1 28/26/1
f 3/9/9 5/13/9 27/25/9 26/24/9
f 41/29/10 42/4/10 48/3/10 47/30/10 46/31/10 45/32/10 44/33/10 43/34/10
f 14/35/9 12/36/9 46/31/9 47/30/9
f 10/37/7 8/38/7 44/33/7 45/32/7
f 6/39/8 4/40/8 41/29/8 43/34/8
f 16/2/5 14/35/5 47/30/5 48/3/5
f 12/36/6 10/37/6 45/32/6 46/31/6
f 8/38/2 6/39/2 43/34/2 44/33/2
f 4/40/4 2/1/4 42/4/4 41/29/4
f 58/41/1 98/42/1 104/43/1 72/44/1
f 69/45/2 87/46/2 88/47/2 71/48/2
f 59/49/10 74/50/10 73/51/10 57/52/10
f 61/53/10 75/54/10 74/50/10 59/49/10
f 63/55/10 76/56/10 75/54/10 61/53/10
f 65/57/10 77/58/10 76/56/10 63/55/10
f 67/59/10 78/60/10 77/58/10 65/57/10
f 69/45/10 79/61/10 78/60/10 67/59/10
f 71/48/10 80/62/10 79/61/10 69/45/10
f 57/52/10 73/51/10 80/62/10 71/48/10
f 81/63/10 88/47/10 87/46/10 86/64/10 85/65/10 84/66/10 83/67/10 82/68/10
f 65/57/4 85/65/4 86/64/4 67/59/4
f 61/53/5 83/67/5 84/66/5 63/55/5
f 57/52/6 81/63/6 82/68/6 59/49/6
f 71/48/7 88/47/7 81/63/7 57/52/7
f 67/59/8 86/64/8 87/46/8 69/45/8
f 63/55/1 84/66/1 85/65/1 65/57/1
f 59/49/9 82/68/9 83/67/9 61/53/9
f 97/69/3 99/70/3 100/71/3 101/72/3 102/73/3 103/74/3 104/43/3 98/42/3
f 70/75/9 103/74/9 102/73/9 68/76/9
f 66/77/7 101/72/7 100/71/7 64/78/7
f 62/79/8 99/70/8 97/69/8 60/80/8
f 72/44/5 104/43/5 103/74/5 70/75/5
f 68/76/6 102/73/6 101/72/6 66/77/6
f 64/78/2 100/71/2 99/70/2 62/79/2
f 60/80/4 97/69/4 98/42/4 58/41/4
s 1
f 17/81/11 34/82/12 33/83/13 18/84/14
f 18/84/14 33/83/13 35/85/15 19/86/16
f 19/86/16 35/85/15 36/87/17 20/88/18
f 20/88/18 36/87/17 37/89/19 21/90/20
f 21/90/20 37/89/19 38/91/21 22/92/22
f 22/92/22 38/91/21 39/93/23 23/94/24
f 23/94/24 39/93/23 40/95/25 24/96/26
f 24/96/26 40/95/25 34/97/12 17/98/11
f 49/99/27 50/100/28 33/101/13 34/102/12
f 50/100/28 51/103/29 35/104/15 33/101/13
f 51/103/29 52/105/30 36/106/17 35/104/15
f 52/105/30 53/107/31 37/108/19 36/106/17
f 53/107/31 54/109/32 38/110/21 37/108/19
f 54/109/32 55/111/33 39/112/23 38/110/21
f 55/111/33 56/113/34 40/114/25 39/112/23
f 56/113/34 49/99/27 34/102/12 40/114/25
f 16/2/35 2/1/36 49/99/27 56/113/34
f 14/35/37 16/2/35 56/113/34 55/111/33
f 12/36/38 14/35/37 55/111/33 54/109/32
f 10/37/39 12/36/38 54/109/32 53/107/31
f 8/38/40 10/37/39 53/107/31 52/105/30
f 6/39/41 8/38/40 52/105/30 51/103/29
f 4/40/42 6/39/41 51/103/29 50/100/28
f 2/1/36 4/40/42 50/100/28 49/99/27
f 73/115/43 74/116/44 89/117/45 90/118/46
f 74/116/44 75/119/47 91/120/48 89/117/45
f 75/119/47 76/121/49 92/122/50 91/120/48
f 76/121/49 77/123/51 93/124/52 92/122/50
f 77/123/51 78/125/53 94/126/54 93/124/52
f 78/125/53 79/127/55 95/128/56 94/126/54
f 79/127/55 80/129/57 96/130/58 95/128/56
f 80/129/57 73/131/43 90/132/46 96/130/58
f 105/133/59 90/134/46 89/135/45 106/136/60
f 106/136/60 89/135/45 91/137/48 107/138/61
f 107/138/61 91/137/48 92/139/50 108/140/62
f 108/140/62 92/139/50 93/141/52 109/142/63
f 109/142/63 93/141/52 94/143/54 110/144/64
f 110/144/64 94/143/54 95/145/56 111/146/65
f 111/146/65 95/145/56 96/147/58 112/148/66
f 112/148/66 96/147/58 90/134/46 105/133/59
f 72/44/67 112/148/66 105/133/59 58/41/68
f 70/75/69 111/146/65 112/148/66 72/44/67
f 68/76/70 110/144/64 111/146/65 70/75/69
f 66/77/71 109/142/63 110/144/64 68/76/70
f 64/78/72 108/140/62 109/142/63 66/77/71
f 62/79/73 107/138/61 108/140/62 64/78/72
f 60/80/74 106/136/60 107/138/61 62/79/73
f 58/41/68 105/133/59 106/136/60 60/80/74
