# Blender v2.83.3 OBJ File: 'gear.blend'
# www.blender.org
o Cylinder
v -0.104525 0.805422 0.176267
v 0.277665 0.707218 0.172718
v 0.569381 0.425463 0.169568
v 0.698492 0.033603 0.166345
v 0.621499 -0.358159 0.164857
v 0.356105 -0.644839 0.166587
v -0.024001 -0.753322 0.171805
v -0.411750 -0.657228 0.178393
v -0.699218 -0.380777 0.182384
v -0.815949 0.004131 0.184166
v -0.735528 0.397195 0.183781
v -0.476964 0.692934 0.180455
v 0.061281 0.307764 0.177048
v -0.096702 0.347095 0.179581
v 0.181224 0.193952 0.174891
v 0.234108 0.034027 0.173496
v 0.203664 -0.128159 0.173564
v 0.098162 -0.248623 0.174794
v -0.053604 -0.295838 0.177004
v -0.211745 -0.256567 0.179623
v -0.332963 -0.140981 0.181445
v -0.385546 0.018776 0.182803
v -0.356197 0.180546 0.183334
v -0.250863 0.301229 0.182067
v 0.061281 0.307764 -0.142538
v -0.096702 0.347095 -0.140005
v 0.181224 0.193952 -0.144695
v 0.234108 0.034027 -0.146090
v 0.203664 -0.128159 -0.146022
v 0.098162 -0.248623 -0.144792
v -0.053604 -0.295838 -0.142582
v -0.211745 -0.256567 -0.139963
v -0.332963 -0.140981 -0.138142
v -0.385546 0.018776 -0.136783
v -0.356197 0.180546 -0.136252
v -0.250863 0.301229 -0.137520
v 0.277665 0.707218 -0.146868
v -0.104525 0.805422 -0.143319
v 0.569381 0.425463 -0.150019
v 0.698492 0.033603 -0.153241
v 0.621499 -0.358159 -0.154730
v 0.356105 -0.644839 -0.152999
v -0.024001 -0.753322 -0.147781
v -0.411750 -0.657228 -0.141193
v -0.699218 -0.380777 -0.137202
v -0.815949 0.004131 -0.135420
v -0.735528 0.397195 -0.135806
v -0.476964 0.692934 -0.139131
v 0.896533 0.596363 0.243074
v 0.473674 1.012064 0.244936
v 0.953919 -0.546012 0.236708
v 1.078064 0.022769 0.239425
v -0.012952 -1.109627 0.243022
v 0.552017 -0.957101 0.237427
v -0.995265 -0.563048 0.254768
v -0.581725 -0.966315 0.250697
v -1.019251 0.567249 0.254194
v -1.151142 -0.004472 0.255712
v -0.084039 1.159574 0.246564
v -0.631788 0.997615 0.250047
v 0.896533 0.596363 -0.228809
v 0.473673 1.012063 -0.226946
v 0.953919 -0.546012 -0.235174
v 1.078064 0.022769 -0.232457
v -0.012947 -1.109625 -0.228863
v 0.552020 -0.957100 -0.234456
v -0.995255 -0.563044 -0.217120
v -0.581716 -0.966312 -0.221190
v -1.019257 0.567246 -0.217685
v -1.151120 -0.004464 -0.216183
v -0.084054 1.159569 -0.225310
v -0.631811 0.997606 -0.221822
vt 0.250000 0.347962
vt 0.250000 0.490000
vt 0.370000 0.457846
vt 0.298981 0.334837
vt 0.250000 0.347962
vt 0.298981 0.334837
vt 0.370000 0.457846
vt 0.250000 0.490000
vt 0.334837 0.298981
vt 0.457846 0.370000
vt 0.347962 0.250000
vt 0.490000 0.250000
vt 0.334837 0.201019
vt 0.457846 0.130000
vt 0.298981 0.165163
vt 0.370000 0.042154
vt 0.250000 0.152038
vt 0.250000 0.010000
vt 0.201019 0.165163
vt 0.130000 0.042154
vt 0.165163 0.201019
vt 0.042154 0.130000
vt 0.152038 0.250000
vt 0.010000 0.250000
vt 0.165163 0.298981
vt 0.042154 0.370000
vt 0.201019 0.334837
vt 0.130000 0.457846
vt 0.457846 0.370000
vt 0.334837 0.298981
vt 0.490000 0.250000
vt 0.347962 0.250000
vt 0.457846 0.130000
vt 0.334837 0.201019
vt 0.370000 0.042154
vt 0.298981 0.165163
vt 0.250000 0.010000
vt 0.250000 0.152038
vt 0.130000 0.042154
vt 0.201019 0.165163
vt 0.042154 0.130000
vt 0.165163 0.201019
vt 0.010000 0.250000
vt 0.152038 0.250000
vt 0.042154 0.370000
vt 0.165163 0.298981
vt 0.130000 0.457846
vt 0.201019 0.334837
vt 0.457846 0.130000
vt 0.457846 0.130000
vt 0.130000 0.042154
vt 0.130000 0.042154
vt 0.010000 0.250000
vt 0.010000 0.250000
vt 0.042154 0.130000
vt 0.250000 0.010000
vt 0.370000 0.042154
vt 0.130000 0.457846
vt 0.130000 0.457846
vt 0.250000 0.010000
vt 0.370000 0.042154
vt 0.042154 0.130000
vt 0.457846 0.370000
vt 0.457846 0.370000
vt 0.370000 0.457846
vt 0.370000 0.457846
vt 0.042154 0.370000
vt 0.042154 0.370000
vt 0.490000 0.250000
vt 0.490000 0.250000
vt 0.250000 0.490000
vt 0.250000 0.490000
vn -0.0127 -0.0058 -0.9999
vn 0.0127 0.0058 0.9999
vn 0.0144 0.0015 0.9999
vn 0.0155 -0.0033 0.9999
vn 0.0165 -0.0058 0.9998
vn 0.0172 -0.0084 0.9998
vn 0.0169 -0.0100 0.9998
vn 0.0143 -0.0103 0.9998
vn 0.0075 -0.0070 0.9999
vn 0.0043 -0.0044 1.0000
vn 0.0021 -0.0007 1.0000
vn 0.0049 0.0068 1.0000
vn 0.0101 0.0086 0.9999
vn -0.0144 -0.0015 -0.9999
vn -0.0155 0.0033 -0.9999
vn -0.0165 0.0058 -0.9998
vn -0.0172 0.0084 -0.9998
vn -0.0169 0.0100 -0.9998
vn -0.0143 0.0103 -0.9998
vn -0.0075 0.0070 -0.9999
vn -0.0043 0.0044 -1.0000
vn -0.0021 0.0007 -1.0000
vn -0.0049 -0.0068 -1.0000
vn -0.0101 -0.0086 -0.9999
vn -0.4920 -0.8706 0.0000
vn 0.7534 -0.6576 0.0000
vn -0.9828 0.1845 0.0000
vn -0.2405 -0.9706 0.0000
vn 0.2852 -0.9585 -0.0000
vn -0.7523 0.6588 -0.0000
vn 0.8762 -0.4819 0.0000
vn 0.2489 0.9685 0.0000
vn -0.2971 0.9549 0.0000
vn -0.9570 -0.2902 -0.0000
vn 0.0256 -0.9997 -0.0000
vn 0.2410 0.9705 -0.0000
vn 0.1542 0.1705 -0.9732
vn 0.9498 0.3129 0.0000
vn 0.6901 0.7237 0.0000
vn -0.7528 0.6582 0.0000
vn -0.2416 -0.9704 -0.0000
vn -0.0426 0.1950 0.9799
vn 0.9499 0.3126 0.0000
vn -0.8915 -0.4530 0.0000
vn -0.6883 -0.7254 0.0000
vn 0.7338 -0.6793 0.0000
vn 0.9839 -0.1785 -0.0000
vn -0.9494 -0.3140 0.0000
vn 0.2606 -0.9654 -0.0000
vn -0.6982 -0.7159 -0.0000
vn 0.7010 0.7131 -0.0000
vn -0.9744 0.2248 -0.0000
vn 0.9770 -0.2132 0.0000
vn -0.2835 0.9590 -0.0000
vn 0.1513 0.1444 0.9779
vn 0.4630 -0.8864 0.0000
vn -0.1567 -0.1535 -0.9756
vn 0.2404 -0.0548 -0.9691
vn 0.8471 0.5315 0.0000
vn -0.1379 -0.1483 0.9793
vn 0.2122 -0.0448 0.9762
vn -0.9995 -0.0310 -0.0000
vn 0.5141 0.8577 -0.0000
vn -0.2060 0.0474 -0.9774
vn -0.5243 0.8515 -0.0000
vn 0.0606 -0.2304 -0.9712
vn 0.0285 0.9996 0.0000
vn -0.1898 0.0355 0.9812
vn 0.9983 -0.0577 -0.0000
vn 0.0661 -0.1943 0.9787
vn -0.0705 0.2150 -0.9741
vn -0.8411 0.5408 0.0000
s off
f 26/1/1 38/2/1 37/3/1 25/4/1
f 14/5/2 13/6/2 2/7/2 1/8/2
f 13/6/3 15/9/3 3/10/3 2/7/3
f 15/9/4 16/11/4 4/12/4 3/10/4
f 16/11/5 17/13/5 5/14/5 4/12/5
f 17/13/6 18/15/6 6/16/6 5/14/6
f 18/15/7 19/17/7 7/18/7 6/16/7
f 19/17/8 20/19/8 8/20/8 7/18/8
f 20/19/9 21/21/9 9/22/9 8/20/9
f 21/21/10 22/23/10 10/24/10 9/22/10
f 22/23/11 23/25/11 11/26/11 10/24/11
f 23/25/12 24/27/12 12/28/12 11/26/12
f 24/27/13 14/5/13 1/8/13 12/28/13
f 25/4/14 37/3/14 39/29/14 27/30/14
f 27/30/15 39/29/15 40/31/15 28/32/15
f 28/32/16 40/31/16 41/33/16 29/34/16
f 29/34/17 41/33/17 42/35/17 30/36/17
f 30/36/18 42/35/18 43/37/18 31/38/18
f 31/38/19 43/37/19 44/39/19 32/40/19
f 32/40/20 44/39/20 45/41/20 33/42/20
f 33/42/21 45/41/21 46/43/21 34/44/21
f 34/44/22 46/43/22 47/45/22 35/46/22
f 35/46/23 47/45/23 48/47/23 36/48/23
f 36/48/24 48/47/24 38/2/24 26/1/24
f 41/33/25 63/49/25 51/50/25 5/14/25
f 23/25/26 35/46/26 36/48/26 24/27/26
f 16/11/27 28/32/27 29/34/27 17/13/27
f 8/20/28 44/39/28 43/37/28 7/18/28
f 24/27/29 36/48/29 26/1/29 14/5/29
f 17/13/30 29/34/30 30/36/30 18/15/30
f 8/20/31 56/51/31 68/52/31 44/39/31
f 2/7/32 37/3/32 38/2/32 1/8/32
f 18/15/33 30/36/33 31/38/33 19/17/33
f 10/24/34 46/43/34 45/41/34 9/22/34
f 10/24/35 58/53/35 70/54/35 46/43/35
f 19/17/36 31/38/36 32/40/36 20/19/36
f 44/39/37 68/52/37 67/55/37 45/41/37
f 4/12/38 40/31/38 39/29/38 3/10/38
f 20/19/39 32/40/39 33/42/39 21/21/39
f 12/28/40 48/47/40 47/45/40 11/26/40
f 14/5/41 26/1/41 25/4/41 13/6/41
f 7/18/42 53/56/42 54/57/42 6/16/42
f 21/21/43 33/42/43 34/44/43 22/23/43
f 12/28/44 60/58/44 72/59/44 48/47/44
f 13/6/45 25/4/45 27/30/45 15/9/45
f 6/16/46 42/35/46 41/33/46 5/14/46
f 22/23/47 34/44/47 35/46/47 23/25/47
f 15/9/48 27/30/48 28/32/48 16/11/48
f 53/56/49 65/60/49 66/61/49 54/57/49
f 55/62/50 67/55/50 68/52/50 56/51/50
f 49/63/51 61/64/51 62/65/51 50/66/51
f 57/67/52 69/68/52 70/54/52 58/53/52
f 51/50/53 63/49/53 64/69/53 52/70/53
f 59/71/54 71/72/54 72/59/54 60/58/54
f 9/22/55 55/62/55 56/51/55 8/20/55
f 39/29/56 61/64/56 49/63/56 3/10/56
f 37/3/57 62/65/57 61/64/57 39/29/57
f 46/43/58 70/54/58 69/68/58 47/45/58
f 6/16/59 54/57/59 66/61/59 42/35/59
f 3/10/60 49/63/60 50/66/60 2/7/60
f 11/26/61 57/67/61 58/53/61 10/24/61
f 43/37/62 65/60/62 53/56/62 7/18/62
f 47/45/63 69/68/63 57/67/63 11/26/63
f 40/31/64 64/69/64 63/49/64 41/33/64
f 45/41/65 67/55/65 55/62/65 9/22/65
f 48/47/66 72/59/66 71/72/66 38/2/66
f 4/12/67 52/70/67 64/69/67 40/31/67
f 5/14/68 51/50/68 52/70/68 4/12/68
f 38/2/69 71/72/69 59/71/69 1/8/69
f 1/8/70 59/71/70 60/58/70 12/28/70
f 42/35/71 66/61/71 65/60/71 43/37/71
f 2/7/72 50/66/72 62/65/72 37/3/72
