# Blender v2.83.3 OBJ File: 'track.blend'
# www.blender.org
o Cube.001_Cube.002
v 28.465761 0.352082 -40.180264
v 28.465761 2.352082 -40.180264
v 19.410450 -0.297354 -84.855843
v 19.410450 1.702646 -84.855843
v 28.753393 0.352082 -40.277615
v 28.753393 2.352082 -40.277615
v 19.711761 -0.297354 -84.893524
v 19.711761 1.702646 -84.893524
v 22.216068 0.528058 -61.859272
v 22.216068 2.528059 -61.859272
v 22.519728 0.528058 -61.859272
v 22.519728 2.528059 -61.859272
v 24.773632 0.528058 -49.783905
v 25.077291 2.528059 -49.783905
v 24.773632 2.528059 -49.783905
v 25.077291 0.528058 -49.783905
v 20.715343 2.528059 -73.539589
v 21.019003 0.528058 -73.539589
v 20.715343 0.528058 -73.539581
v 21.019003 2.528059 -73.539581
v 19.442917 1.723341 -84.536819
v 19.744537 -0.276659 -84.608856
v 19.442917 -0.276659 -84.536819
v 19.744537 1.723341 -84.608856
v 19.155113 1.723341 -84.574158
v 19.122145 1.702646 -84.822594
v 19.122145 -0.297354 -84.822594
v 19.155113 -0.276659 -84.574158
v 18.694769 2.162955 -74.902519
v 18.694769 0.162955 -74.902519
v 18.406136 2.162955 -74.872253
v 18.406136 0.162955 -74.872253
v 21.465687 3.575470 -50.284222
v 21.465687 2.177904 -50.284222
v 21.177053 3.575470 -50.253960
v 21.177053 2.177904 -50.253960
v 19.791594 3.170430 -62.563107
v 20.080227 3.170429 -62.593369
v 20.080227 1.170429 -62.593369
v 19.791594 1.170429 -62.563107
v 26.619698 0.440070 -44.982086
v 26.915342 2.440070 -45.030762
v 26.619698 2.440070 -44.982086
v 26.915342 0.440070 -45.030762
v 23.494850 2.528059 -55.821587
v 23.798510 0.528058 -55.821587
v 23.494850 0.528058 -55.821587
v 23.798510 2.528059 -55.821587
v 21.465706 0.528058 -67.699432
v 21.769365 2.528059 -67.699432
v 21.465706 2.528059 -67.699432
v 21.769365 0.528058 -67.699432
v 20.079130 0.125700 -79.038200
v 20.381771 2.125700 -79.074219
v 20.079130 2.125700 -79.038200
v 20.381771 0.125700 -79.074219
v 18.780624 -0.056852 -79.723206
v 18.780624 1.943148 -79.723206
v 19.068844 1.943148 -79.719666
v 19.068844 -0.056852 -79.719666
v 19.387499 2.666692 -68.747940
v 19.387499 0.666692 -68.747940
v 19.098866 0.666692 -68.717682
v 19.098866 2.666692 -68.717682
v 20.484324 3.674167 -56.408531
v 20.772957 3.674167 -56.438797
v 20.772957 1.674167 -56.438797
v 20.484324 1.674167 -56.408531
v 27.542728 0.396076 -42.581173
v 27.834368 3.190010 -42.654186
v 27.542728 3.190010 -42.581173
v 27.834368 0.396076 -42.654186
v 20.830688 3.926035 -53.331245
v 21.119322 3.926035 -53.361507
v 21.119322 1.926035 -53.361507
v 20.830688 1.926035 -53.331245
v 27.550308 4.540457 -42.544601
v 26.627275 5.378385 -44.945511
v 26.922920 5.378385 -44.994186
v 27.841946 4.540457 -42.617615
v 26.626251 6.958330 -44.901398
v 24.780186 7.840252 -49.703217
v 25.083845 7.840252 -49.703217
v 26.921896 6.958330 -44.950073
v 23.798510 9.632182 -55.821587
v 25.077291 8.887562 -49.783905
v 24.773632 8.887562 -49.783905
v 23.494850 9.632182 -55.821587
v 23.473314 10.534675 -55.923271
v 22.216068 10.764998 -61.859272
v 22.519728 10.764998 -61.859272
v 23.776974 10.534675 -55.923271
v 21.792070 11.316370 -67.522713
v 22.514269 10.286839 -61.901764
v 22.210609 10.286839 -61.901764
v 21.488411 11.316370 -67.522713
v 21.465706 12.174839 -67.699432
v 20.715343 11.641475 -73.539589
v 21.019003 11.641475 -73.539581
v 21.769365 12.174839 -67.699432
v 20.381771 12.781654 -79.074219
v 21.003309 12.967446 -73.675888
v 20.699675 12.967446 -73.675003
v 20.079130 12.781654 -79.038200
v 19.435129 13.240170 -84.630867
v 19.402662 13.219474 -84.949883
v 19.703974 13.219474 -84.987564
v 20.071342 13.642529 -79.132248
v 19.736750 13.240170 -84.702896
v 19.147324 13.240170 -84.668198
v 19.114357 13.219474 -84.916641
v 18.772837 13.130069 -79.817245
v 20.373983 13.642529 -79.168259
v 19.061054 13.130069 -79.813713
v 18.693602 11.888666 -74.927727
v 18.404968 11.888666 -74.897461
v 19.067675 11.703947 -79.744881
v 18.779455 11.703947 -79.748413
v 18.709873 10.666944 -74.768318
v 18.421240 10.666944 -74.738052
v 19.369545 8.096348 -68.907455
v 19.080910 8.096349 -68.877197
v 19.093163 8.831183 -68.772079
v 19.785891 9.982632 -62.617504
v 20.074524 9.982632 -62.647766
v 19.381796 8.831183 -68.802338
v 20.772957 6.273186 -56.438797
v 20.083811 6.295747 -62.561531
v 19.795177 6.295747 -62.531273
v 20.484324 6.273186 -56.408531
v 21.151041 5.156334 -53.290161
v 20.804676 5.506899 -56.367451
v 20.516043 5.506899 -56.337189
v 20.862406 5.156334 -53.259903
vt 0.625000 0.250000
vt 0.375000 0.250000
vt 0.375000 0.250000
vt 0.625000 0.250000
vt 0.625000 0.500000
vt 0.375000 0.500000
vt 0.375000 0.735505
vt 0.625000 0.735505
vt 0.625000 0.750000
vt 0.375000 0.750000
vt 0.625000 1.000000
vt 0.375000 1.000000
vt 0.125000 0.735505
vt 0.125000 0.750000
vt 0.875000 0.735505
vt 0.875000 0.750000
vt 0.625000 0.149472
vt 0.625000 0.115962
vt 0.625000 0.116206
vt 0.625000 0.148458
vt 0.125000 0.600528
vt 0.375000 0.600528
vt 0.375000 0.634038
vt 0.125000 0.634038
vt 0.625000 0.600528
vt 0.625000 0.634038
vt 0.375000 0.086972
vt 0.625000 0.086972
vt 0.375000 0.115962
vt 0.375000 0.028991
vt 0.625000 0.028991
vt 0.625000 0.057981
vt 0.375000 0.057981
vt 0.875000 0.692019
vt 0.625000 0.692019
vt 0.625000 0.692019
vt 0.875000 0.692019
vt 0.125000 0.663028
vt 0.375000 0.663028
vt 0.375000 0.692019
vt 0.125000 0.692019
vt 0.625000 0.663028
vt 0.375000 0.534350
vt 0.625000 0.534350
vt 0.625000 0.567019
vt 0.375000 0.567019
vt 0.125000 0.534350
vt 0.125000 0.567019
vt 0.625000 0.215650
vt 0.625000 0.182981
vt 0.625000 0.183786
vt 0.625000 0.215650
vt 0.375000 0.149472
vt 0.375000 0.182981
vt 0.625000 0.248320
vt 0.625000 0.248320
vt 0.625000 0.248320
vt 0.625000 0.248320
vt 0.125000 0.500000
vt 0.375000 0.501680
vt 0.125000 0.501680
vt 0.625000 0.501680
vt 0.375000 0.215650
vt 0.375000 0.248320
vt 0.375000 0.248320
vt 0.625000 0.248320
vt 0.625000 0.248320
vt 0.375000 0.248320
vt 0.375000 0.248320
vt 0.625000 0.248320
vt 0.875000 0.501680
vt 0.875000 0.501680
vt 0.875000 0.501680
vt 0.875000 0.501680
vt 0.125000 0.501680
vt 0.125000 0.500000
vt 0.875000 0.501680
vt 0.875000 0.501680
vt 0.875000 0.501680
vt 0.875000 0.501680
vt 0.375000 0.248320
vt 0.625000 0.248320
vt 0.375000 0.248320
vt 0.625000 0.248320
vt 0.625000 0.248320
vt 0.125000 0.501680
vt 0.125000 0.501680
vt 0.125000 0.501680
vt 0.125000 0.501680
vt 0.375000 0.248320
vt 0.625000 0.248320
vt 0.625000 0.248320
vt 0.375000 0.248320
vt 0.375000 0.248320
vt 0.625000 0.248320
vt 0.125000 0.501680
vt 0.125000 0.501680
vt 0.125000 0.501680
vt 0.125000 0.501680
vt 0.625000 0.248320
vt 0.375000 0.248320
vt 0.625000 0.248320
vt 0.375000 0.248320
vt 0.375000 0.248320
vt 0.625000 0.248320
vt 0.125000 0.501680
vt 0.125000 0.501680
vt 0.125000 0.501680
vt 0.125000 0.501680
vt 0.375000 0.248320
vt 0.625000 0.248320
vt 0.625000 0.248320
vt 0.375000 0.248320
vt 0.875000 0.501680
vt 0.875000 0.501680
vt 0.875000 0.501680
vt 0.875000 0.501680
vt 0.375000 0.014495
vt 0.625000 0.014495
vt 0.875000 0.692019
vt 0.625000 0.692019
vt 0.375000 0.721009
vt 0.125000 0.721009
vt 0.625000 0.721009
vt 0.625000 0.634038
vt 0.625000 0.662540
vt 0.875000 0.567019
vt 0.875000 0.567019
vt 0.625000 0.567019
vt 0.625000 0.248320
vt 0.625000 0.250000
vt 0.875000 0.534350
vt 0.625000 0.534350
vt 0.875000 0.534350
vt 0.875000 0.501680
vt 0.875000 0.501680
vt 0.875000 0.501680
vt 0.875000 0.501680
vt 0.375000 0.248320
vt 0.625000 0.248320
vt 0.125000 0.501680
vt 0.125000 0.501680
vt 0.625000 0.248320
vt 0.375000 0.248320
vt 0.625000 0.248320
vt 0.625000 0.248320
vt 0.375000 0.000000
vt 0.625000 0.000000
vt 0.625000 0.014495
vt 0.625000 0.028991
vt 0.875000 0.501680
vt 0.875000 0.501680
vt 0.875000 0.501680
vt 0.875000 0.501680
vt 0.625000 0.721009
vt 0.875000 0.721009
vt 0.875000 0.735505
vt 0.625000 0.735505
vt 0.875000 0.721009
vt 0.875000 0.721009
vt 0.625000 0.721009
vt 0.625000 0.028991
vt 0.625000 0.057981
vt 0.625000 0.663028
vt 0.875000 0.663028
vt 0.875000 0.663028
vt 0.625000 0.057981
vt 0.625000 0.086972
vt 0.875000 0.634038
vt 0.883313 0.662769
vt 0.625000 0.087460
vt 0.625000 0.115962
vt 0.875000 0.634038
vt 0.625000 0.601542
vt 0.875000 0.601542
vt 0.875000 0.633794
vt 0.625000 0.633794
vt 0.875000 0.600528
vt 0.875000 0.600528
vt 0.625000 0.600528
vt 0.625000 0.149472
vt 0.625000 0.182981
vt 0.625000 0.534350
vt 0.875000 0.534350
vt 0.875000 0.566214
vt 0.625000 0.566214
vt 0.625000 0.500000
vt 0.875000 0.500000
vt 0.875000 0.501680
vt 0.625000 0.501680
vt 0.875000 0.500000
vt 0.875000 0.501680
vt 0.625000 0.250000
vt 0.625000 0.215650
vt 0.625000 0.248320
vt 0.875000 0.501680
vt 0.875000 0.501680
vt 0.875000 0.501680
vt 0.875000 0.501680
vt 0.625000 0.248320
vt 0.625000 0.248320
vt 0.875000 0.501680
vt 0.875000 0.501680
vt 0.625000 0.248320
vt 0.625000 0.248320
vt 0.625000 0.248320
vt 0.625000 0.248320
vt 0.875000 0.501680
vt 0.875000 0.501680
vt 0.625000 0.248320
vt 0.625000 0.248320
vt 0.625000 0.248320
vt 0.625000 0.248320
vt 0.875000 0.501680
vt 0.875000 0.501680
vt 0.875000 0.501680
vt 0.875000 0.501680
vt 0.875000 0.501680
vt 0.875000 0.501680
vt 0.625000 0.248320
vt 0.625000 0.248320
vt 0.875000 0.501680
vt 0.875000 0.501680
vt 0.625000 0.248320
vt 0.625000 0.248320
vt 0.625000 0.248320
vt 0.625000 0.248320
vn -0.1146 0.0000 -0.9934
vn -0.1241 0.0000 -0.9923
vn 0.9327 0.0000 -0.3607
vn 0.3206 0.0000 0.9472
vn -0.0049 -0.9999 -0.0165
vn 0.0880 0.9501 0.2993
vn -0.9918 0.0000 0.1274
vn 0.0000 -1.0000 0.0000
vn 0.9918 0.0000 -0.1274
vn -0.9783 0.0000 0.2072
vn -0.9334 0.0000 0.3588
vn 0.0000 0.0000 1.0000
vn 0.9783 0.0000 -0.2072
vn 0.9934 0.0000 -0.1144
vn 0.0043 -0.9974 0.0722
vn -0.9934 0.0000 0.1149
vn 0.9970 0.0013 0.0774
vn 0.0122 -0.9977 0.0671
vn -0.9913 0.0000 0.1316
vn -0.9970 0.0000 -0.0770
vn -0.0123 0.0084 0.9999
vn -0.0005 -0.9973 0.0728
vn 0.0117 0.9937 0.1119
vn 0.9970 0.0000 0.0774
vn 0.9970 0.0003 0.0774
vn 0.0021 -0.9990 0.0456
vn 0.1043 0.0000 0.9945
vn 0.9937 0.0000 -0.1118
vn 0.0085 -0.9967 0.0806
vn -0.9937 0.0000 0.1118
vn -0.1043 -0.0089 -0.9945
vn 0.0000 0.0152 -0.9999
vn -0.0015 -0.9998 -0.0179
vn 0.0000 0.0000 -1.0000
vn -0.9913 0.0004 0.1315
vn 0.0127 -0.9974 0.0713
vn -0.0032 -0.9990 0.0452
vn 0.1182 0.0082 0.9930
vn -0.1043 0.0159 -0.9944
vn -0.9334 -0.0028 0.3588
vn -0.0035 -0.9998 -0.0171
vn -0.1042 0.0405 -0.9937
vn 0.0639 0.9491 0.3083
vn 0.9327 0.0029 -0.3606
vn -0.1624 0.0127 -0.9866
vn 0.2428 -0.0276 0.9697
vn 0.0143 0.9843 0.1762
vn 0.1624 -0.0179 0.9866
vn -0.9335 -0.0046 0.3584
vn 0.9328 0.0047 -0.3603
vn 0.0000 0.9925 0.1224
vn 0.0000 0.9992 0.0388
vn 0.0000 0.0127 0.9999
vn 0.0000 0.9836 0.1802
vn 0.0000 0.0201 -0.9998
vn 0.0000 0.0055 1.0000
vn 0.0000 0.9959 -0.0909
vn -0.0021 0.9994 -0.0343
vn 0.0014 0.0130 0.9999
vn -0.1182 0.0000 -0.9930
vn -0.0122 0.9977 -0.0671
vn 0.0005 0.9973 -0.0728
vn -0.0127 0.9974 -0.0713
vn -0.0016 0.9997 0.0226
vn -0.1146 -0.0082 -0.9934
vn -0.1241 -0.0082 -0.9922
vn 0.9934 -0.0003 -0.1144
vn -0.9934 0.0003 0.1149
vn -0.9970 -0.0013 -0.0770
vn -0.0018 0.9993 -0.0383
vn 0.0123 -0.0026 -0.9999
vn 0.1043 0.0026 0.9945
vn -0.9970 -0.0003 -0.0770
vn 0.0417 0.9167 0.3974
vn 0.1042 0.0296 0.9941
vn -0.0191 0.9832 -0.1818
vn 0.9937 -0.0001 -0.1118
vn -0.9937 0.0001 0.1118
vn 0.1043 0.0080 0.9945
vn 0.0004 1.0000 0.0036
vn -0.1043 0.0102 -0.9945
vn -0.9936 0.0154 0.1121
vn 0.9936 -0.0154 -0.1121
vn 0.1041 -0.0603 0.9927
s off
f 4/1/1 3/2/1 27/3/1 26/4/1
f 3/2/2 4/1/2 8/5/2 7/6/2
f 72/7/3 70/8/3 6/9/3 5/10/3
f 5/10/4 6/9/4 2/11/4 1/12/4
f 69/13/5 72/7/5 5/10/5 1/14/5
f 70/8/6 71/15/6 2/16/6 6/9/6
f 51/17/7 10/18/7 95/19/7 96/20/7
f 49/21/8 52/22/8 11/23/8 9/24/8
f 52/22/9 50/25/9 12/26/9 11/23/9
f 47/27/10 45/28/10 10/18/10 9/29/10
f 41/30/11 43/31/11 15/32/11 13/33/11
f 15/34/12 14/35/12 86/36/12 87/37/12
f 47/38/8 46/39/8 16/40/8 13/41/8
f 46/39/13 48/42/13 14/35/13 16/40/13
f 56/43/14 54/44/14 20/45/14 18/46/14
f 53/47/15 56/43/15 18/46/15 19/48/15
f 55/49/16 17/50/16 103/51/16 104/52/16
f 49/53/7 51/17/7 17/50/7 19/54/7
f 59/55/17 21/56/17 105/57/17 114/58/17
f 3/59/18 7/6/18 22/60/18 23/61/18
f 7/6/14 8/5/14 24/62/14 22/60/14
f 53/63/16 55/49/16 21/56/16 23/64/16
f 28/65/19 25/66/19 26/4/19 27/3/19
f 58/67/20 57/68/20 32/69/20 31/70/20
f 58/71/21 59/72/21 114/73/21 112/74/21
f 3/59/22 23/61/22 28/75/22 27/76/22
f 74/77/23 73/78/23 35/79/23 33/80/23
f 60/81/24 59/55/24 29/82/24 30/83/24
f 29/82/25 59/55/25 117/84/25 115/85/25
f 57/86/26 60/87/26 30/88/26 32/89/26
f 34/90/27 33/91/27 35/92/27 36/93/27
f 75/94/28 74/95/28 33/91/28 34/90/28
f 76/96/29 75/97/29 34/98/29 36/99/29
f 73/100/30 76/101/30 36/93/30 35/92/30
f 64/102/30 63/103/30 40/104/30 37/105/30
f 63/106/29 62/107/29 39/108/29 40/109/29
f 62/110/28 61/111/28 38/112/28 39/113/28
f 61/114/31 64/115/31 123/116/31 126/117/31
f 69/118/11 71/119/11 43/31/11 41/30/11
f 14/35/32 15/34/32 82/120/32 83/121/32
f 13/41/33 16/40/33 44/122/33 41/123/33
f 16/40/3 14/35/3 42/124/3 44/122/3
f 11/23/13 12/26/13 48/42/13 46/39/13
f 9/24/8 11/23/8 46/39/8 47/38/8
f 48/42/13 12/26/13 91/125/13 92/126/13
f 13/33/10 15/32/10 45/28/10 47/27/10
f 9/29/7 10/18/7 51/17/7 49/53/7
f 18/46/9 20/45/9 50/25/9 52/22/9
f 19/48/8 18/46/8 52/22/8 49/21/8
f 20/45/34 17/127/34 98/128/34 99/129/34
f 19/54/16 17/50/16 55/49/16 53/63/16
f 26/4/35 25/66/35 110/130/35 111/131/35
f 23/61/36 22/60/36 56/43/36 53/47/36
f 22/60/14 24/62/14 54/44/14 56/43/14
f 28/75/37 23/61/37 60/87/37 57/86/37
f 55/132/38 54/44/38 113/133/38 108/134/38
f 23/64/24 21/56/24 59/55/24 60/81/24
f 25/66/20 28/65/20 57/68/20 58/67/20
f 29/135/39 31/136/39 120/137/39 119/138/39
f 30/83/28 29/82/28 61/111/28 62/110/28
f 32/89/29 30/88/29 62/107/29 63/106/29
f 31/70/30 32/69/30 63/103/30 64/102/30
f 37/105/30 40/104/30 68/139/30 65/140/30
f 40/109/29 39/108/29 67/141/29 68/142/29
f 39/113/28 38/112/28 66/143/28 67/144/28
f 66/143/28 38/112/28 128/145/28 127/146/28
f 1/147/11 2/148/11 71/119/11 69/118/11
f 43/31/40 71/119/40 77/149/40 78/150/40
f 41/123/41 44/122/41 72/7/41 69/13/41
f 44/122/3 42/124/3 70/8/3 72/7/3
f 65/140/30 68/139/30 76/101/30 73/100/30
f 68/142/29 67/141/29 75/97/29 76/96/29
f 67/144/28 66/143/28 74/95/28 75/94/28
f 66/151/42 65/152/42 133/153/42 132/154/42
f 79/155/43 78/156/43 77/157/43 80/158/43
f 70/8/44 42/124/44 79/155/44 80/158/44
f 42/124/45 43/159/45 78/156/45 79/155/45
f 71/15/46 70/8/46 80/158/46 77/157/46
f 83/121/47 82/120/47 81/160/47 84/161/47
f 43/159/48 42/124/48 84/161/48 81/160/48
f 15/32/49 43/31/49 81/162/49 82/163/49
f 42/124/50 14/35/50 83/121/50 84/161/50
f 85/164/51 88/165/51 87/37/51 86/36/51
f 14/35/13 48/42/13 85/164/13 86/36/13
f 48/42/34 45/166/34 88/165/34 85/164/34
f 45/28/10 15/32/10 87/167/10 88/168/10
f 91/125/52 90/169/52 89/170/52 92/126/52
f 10/18/10 45/28/10 89/171/10 90/172/10
f 45/166/53 48/42/53 92/126/53 89/170/53
f 12/26/34 10/173/34 90/169/34 91/125/34
f 93/174/54 96/175/54 95/176/54 94/177/54
f 12/26/9 50/25/9 93/174/9 94/177/9
f 50/25/55 51/178/55 96/175/55 93/174/55
f 10/173/56 12/26/56 94/177/56 95/176/56
f 99/129/57 98/128/57 97/179/57 100/180/57
f 17/50/7 51/17/7 97/181/7 98/182/7
f 51/178/12 50/25/12 100/180/12 97/179/12
f 50/25/9 20/45/9 99/129/9 100/180/9
f 101/183/58 104/184/58 103/185/58 102/186/58
f 17/127/59 20/45/59 102/186/59 103/185/59
f 54/44/60 55/132/60 104/184/60 101/183/60
f 20/45/14 54/44/14 101/183/14 102/186/14
f 107/187/61 106/188/61 105/189/61 109/190/61
f 105/189/62 106/188/62 111/191/62 110/192/62
f 109/190/63 105/189/63 108/134/63 113/133/63
f 105/189/64 110/192/64 112/74/64 114/73/64
f 4/1/65 26/4/65 111/131/65 106/193/65
f 8/5/66 4/1/66 106/193/66 107/187/66
f 24/62/67 8/5/67 107/187/67 109/190/67
f 21/56/68 55/49/68 108/194/68 105/57/68
f 54/44/67 24/62/67 109/190/67 113/133/67
f 25/66/69 58/67/69 112/195/69 110/130/69
f 117/196/70 118/197/70 116/198/70 115/199/70
f 59/72/71 58/71/71 118/197/71 117/196/71
f 31/136/72 29/135/72 115/199/72 116/198/72
f 58/67/73 31/70/73 116/200/73 118/201/73
f 119/138/74 120/137/74 122/202/74 121/203/74
f 61/111/28 29/82/28 119/204/28 121/205/28
f 64/115/75 61/114/75 121/203/75 122/202/75
f 31/70/30 64/102/30 122/206/30 120/207/30
f 126/117/76 123/116/76 124/208/76 125/209/76
f 38/112/77 61/111/77 126/210/77 125/211/77
f 64/102/78 37/105/78 124/212/78 123/213/78
f 37/214/79 38/215/79 125/209/79 124/208/79
f 128/216/80 129/217/80 130/218/80 127/219/80
f 37/105/30 65/140/30 130/220/30 129/221/30
f 65/152/27 66/151/27 127/219/27 130/218/27
f 38/215/81 37/214/81 129/217/81 128/216/81
f 132/154/23 133/153/23 134/222/23 131/223/23
f 65/140/82 73/100/82 134/224/82 133/225/82
f 74/95/83 66/143/83 132/226/83 131/227/83
f 73/78/84 74/77/84 131/223/84 134/222/84
